<mxfile host="app.diagrams.net" modified="2023-11-02T17:20:54.062Z" agent="Mozilla/5.0 (Windows NT 10.0; Win64; x64) AppleWebKit/537.36 (KHTML, like Gecko) Chrome/118.0.0.0 Safari/537.36" version="22.0.8" etag="6oGIkvDkqjqcKsATEu3L" type="github">
  <diagram name="PÃ¡gina-1" id="sIr-IufaKY_H27fpuxqQ">
    <mxGraphModel>
      <root>
        <mxCell id="0" />
        <mxCell id="1" parent="0" />
      </root>
    </mxGraphModel>
  </diagram>
</mxfile>
